<svg width="1200" height="675" viewBox="0 0 1200 675" fill="none" xmlns="http://www.w3.org/2000/svg">
  <rect width="1200" height="675" rx="42" fill="#F8FAFC"/>
  <rect x="70" y="78" width="1060" height="520" rx="34" fill="#07111F"/>
  <rect x="112" y="124" width="290" height="154" rx="24" fill="#0D9488"/>
  <rect x="432" y="124" width="290" height="154" rx="24" fill="#0EA5E9"/>
  <rect x="752" y="124" width="336" height="154" rx="24" fill="#111827" stroke="#334155"/>
  <rect x="112" y="318" width="520" height="230" rx="24" fill="#0F172A" stroke="#334155"/>
  <rect x="662" y="318" width="426" height="230" rx="24" fill="#0F172A" stroke="#334155"/>
  <path d="M160 492C215 402 277 446 327 388C372 337 421 438 485 365C526 319 562 336 590 306" stroke="#14B8A6" stroke-width="11" stroke-linecap="round"/>
  <rect x="712" y="470" width="46" height="44" rx="10" fill="#14B8A6"/>
  <rect x="782" y="410" width="46" height="104" rx="10" fill="#38BDF8"/>
  <rect x="852" y="370" width="46" height="144" rx="10" fill="#14B8A6"/>
  <rect x="922" y="440" width="46" height="74" rx="10" fill="#38BDF8"/>
  <rect x="992" y="350" width="46" height="164" rx="10" fill="#14B8A6"/>
  <text x="144" y="183" fill="#F8FAFC" font-family="Inter, Arial" font-size="34" font-weight="900">Survey</text>
  <text x="144" y="226" fill="#CCFBF1" font-family="Inter, Arial" font-size="42" font-weight="900">Dashboard</text>
  <text x="80" y="646" fill="#334155" font-family="Inter, Arial" font-size="32" font-weight="900">Power BI • M&amp;E • Decision Support</text>
</svg>
