<svg width="1200" height="675" viewBox="0 0 1200 675" fill="none" xmlns="http://www.w3.org/2000/svg">
  <rect width="1200" height="675" rx="42" fill="#07111F"/>
  <circle cx="970" cy="130" r="180" fill="#38BDF8" opacity="0.16"/>
  <circle cx="210" cy="565" r="240" fill="#14B8A6" opacity="0.18"/>
  <path d="M109 444C229 277 365 549 493 354C631 143 762 504 904 307C1003 170 1056 260 1110 210" stroke="#14B8A6" stroke-width="14" stroke-linecap="round"/>
  <path d="M109 515C240 364 363 589 505 429C642 274 760 573 914 421C1007 329 1061 370 1110 335" stroke="#38BDF8" stroke-width="10" stroke-linecap="round" opacity="0.76"/>
  <g opacity="0.95">
    <circle cx="315" cy="210" r="42" fill="#F8FAFC"/>
    <circle cx="455" cy="170" r="34" fill="#14B8A6"/>
    <circle cx="595" cy="238" r="42" fill="#F8FAFC"/>
    <circle cx="735" cy="170" r="34" fill="#14B8A6"/>
    <circle cx="875" cy="240" r="42" fill="#F8FAFC"/>
    <path d="M357 198L421 180M489 190L553 220M637 220L701 188M769 190L833 222" stroke="#F8FAFC" stroke-width="8" opacity="0.62"/>
  </g>
  <text x="80" y="100" fill="#F8FAFC" font-family="Inter, Arial" font-size="48" font-weight="900">Generative AI</text>
  <text x="80" y="151" fill="#94A3B8" font-family="Inter, Arial" font-size="25" font-weight="600">GANs • VAEs • Dynamical Systems</text>
</svg>
