<svg width="1200" height="675" viewBox="0 0 1200 675" fill="none" xmlns="http://www.w3.org/2000/svg">
  <rect width="1200" height="675" rx="42" fill="#0D1B2E"/>
  <rect x="96" y="135" width="238" height="160" rx="28" fill="#07111F" stroke="#334155" stroke-width="3"/>
  <rect x="481" y="135" width="238" height="160" rx="28" fill="#07111F" stroke="#334155" stroke-width="3"/>
  <rect x="866" y="135" width="238" height="160" rx="28" fill="#07111F" stroke="#334155" stroke-width="3"/>
  <rect x="291" y="410" width="238" height="160" rx="28" fill="#07111F" stroke="#334155" stroke-width="3"/>
  <rect x="676" y="410" width="238" height="160" rx="28" fill="#07111F" stroke="#334155" stroke-width="3"/>
  <path d="M334 215H481" stroke="#14B8A6" stroke-width="12" stroke-linecap="round"/>
  <path d="M719 215H866" stroke="#14B8A6" stroke-width="12" stroke-linecap="round"/>
  <path d="M215 295L410 410" stroke="#38BDF8" stroke-width="12" stroke-linecap="round"/>
  <path d="M600 295L410 410" stroke="#38BDF8" stroke-width="12" stroke-linecap="round"/>
  <path d="M985 295L795 410" stroke="#38BDF8" stroke-width="12" stroke-linecap="round"/>
  <text x="167" y="229" fill="#F8FAFC" font-family="Inter, Arial" font-size="36" font-weight="900">SQL</text>
  <text x="532" y="229" fill="#F8FAFC" font-family="Inter, Arial" font-size="36" font-weight="900">Python</text>
  <text x="928" y="229" fill="#F8FAFC" font-family="Inter, Arial" font-size="36" font-weight="900">Airflow</text>
  <text x="345" y="504" fill="#F8FAFC" font-family="Inter, Arial" font-size="36" font-weight="900">Docker</text>
  <text x="741" y="504" fill="#F8FAFC" font-family="Inter, Arial" font-size="36" font-weight="900">CI/CD</text>
  <text x="80" y="80" fill="#F8FAFC" font-family="Inter, Arial" font-size="48" font-weight="900">Data Engineering Pipeline</text>
  <text x="80" y="126" fill="#94A3B8" font-family="Inter, Arial" font-size="24" font-weight="600">Production-oriented analytics workflow</text>
</svg>
